<svg xmlns="http://www.w3.org/2000/svg" xml:space="preserve" id="Layer_1" width="100%" x="0" y="0" viewBox="0 0 502 528"><path fill="#ebd3a9" d="M394.91 292.965c1.599-1.394 3.197-2.79 5.296-4.435a21 21 0 0 0 1.885-1.307c1.472-.984 2.944-1.968 4.889-3.224.742-.446.896-.692.934-1.01 1.63-1.387 3.26-2.774 5.359-4.556 1.23-1.382 1.99-2.371 2.75-3.36 28.014-.045 56.028-.09 84.51-.105.467 5.72.467 11.408.467 17.564-22.999.097-45.736 1.859-67.83 8.828-22.755 7.177-42.22 19.873-59.813 35.702-.864.777-1.723 1.56-2.628 2.287-.217.174-.607.132-1.755.345 0-5.685 0-11.225-.064-17.23.012-3.155.088-5.846.49-9.119 2.104-2.153 3.883-3.724 5.662-5.295 0 0-.07-.03.271-.061 1.18-.89 2.019-1.75 2.857-2.61a77 77 0 0 0 3.102-1.95c3.546-2.735 6.598-5.093 9.65-7.45.334-.067.614-.228 1.274-.744 1.188-.93 1.941-1.6 2.695-2.27m7.113-52.843a49 49 0 0 1-1.703-1.32c-.69-.509-.993-.68-1.297-.85 0 0-.023.049-.108-.187-.297-.513-.578-.669-.927-.702-2.058-1.663-4.117-3.327-6.653-5.335-1.44-1.072-2.4-1.799-3.36-2.526 0 0-.373-.216-.763-.557-2.97-2.145-5.55-3.95-8.13-5.754 0 0-.092.036-.179-.245-1.041-1.028-1.996-1.775-2.951-2.521a50 50 0 0 0-1.675-1.436c-2.024-1.537-3.598-2.73-5.173-3.923-.047-2.302-.093-4.604-.2-7.336-.06-6.538-.06-12.645-.06-20.029 6.008 4.91 11 9.062 16.069 13.12 22.997 18.412 49.163 29.366 78.436 32.422 12.178 1.27 24.472 1.424 37.182 2.071.468 5.674.468 11.362.222 17.563-.403.569-.56.626-.717.683-24.702-.064-49.406-.336-74.104-.046-6.21.073-11.33-.82-15.567-6.367-.732-.573-1.03-.762-1.33-.95-.087-.331-.278-.584-.899-1.058-.53-.582-.805-.742-1.152-.78 0 0 .01-.06-.146-.331-1.026-.811-1.897-1.35-2.769-1.89-.105-.314-.302-.55-.922-.99-.522-.558-.787-.706-1.124-.726M87.025 219.064c1.2-.485 2.401-.97 4.16-1.758a627 627 0 0 0 6.888-4.233s-.072-.006.297-.03c1.804-.993 3.24-1.962 4.674-2.931a75 75 0 0 0 3.204-1.727c2.28-1.671 4.05-3 5.819-4.33 0 0-.075-.035.264-.058.834-.631 1.33-1.239 1.825-1.847 0 0-.125-.02.244-.034 1.14-.65 1.912-1.287 2.684-1.924a25 25 0 0 0 2.03-1.111 138 138 0 0 0 4.166-3.941s.375-.076.85-.284c3.016-2.324 5.555-4.44 8.536-6.923.2 2.214.33 3.645.458 5.075-.03 5.354-.06 10.708-.088 16.916-.054 2.165-.11 3.478-.47 4.908-1.417 1.122-2.529 2.127-3.857 3.213-.502.241-.69.478-1.117.878-4.842 3.69-9.35 7.295-14.12 11.029-1.01.73-1.76 1.33-2.762 2.032-.487.379-.721.654-1.228.978-.672.405-1.072.762-1.716 1.183-.464.31-.684.558-1.207.863-1.052.72-1.801 1.382-2.787 2.117-.543.248-.74.505-.797.85.032.004-.017-.036-.335.02-1.444 1.023-2.569 1.992-3.663 2.976.03.015-.02-.032-.344.022-1.784 1.317-3.244 2.578-5.013 3.912-1.078.754-1.847 1.436-2.854 2.197-.426.348-.613.616-1.026.983-.503.302-.677.573-.978 1.003-.528.285-.702.556-1.044 1.06-1.429 1.15-2.566 2.146-4.077 3.055-1.133-.032-1.892.023-3.047.006-1.464-.019-2.531.035-4.06.01-25.145-.042-49.828-.003-74.761-.051-.424-.114-.599-.14-.773-.168v-17.532c21.38-.047 42.534-1.69 63.968-7.544 2.898-1.013 5.062-1.92 7.227-2.826 0 0 .412.002.983-.078 4.996-2.038 9.422-3.997 13.847-5.956m46.069 119.947c-.21.28-.419.56-1.013.66a81 81 0 0 1-2.988-1.87c-16.823-15.974-35.945-28.24-58.006-35.664-22.44-7.552-45.641-9.573-69.619-9.157-.468-5.668-.468-11.356 0-17.544 3.285-.506 6.102-.51 8.92-.519 23.527-.076 47.055-.154 70.904-.143.757.034 1.192-.02 1.973-.005.814.122 1.281.175 1.901.52 2.396 2.387 4.638 4.483 7.016 6.824.621.495 1.107.745 1.774 1.28 2.126 1.747 4.072 3.207 6.163 4.93.984.768 1.822 1.272 2.785 2.089 2.453 2.038 4.78 3.764 7.324 5.663.7.442 1.184.71 1.835 1.26 1.399 1.133 2.63 1.986 3.98 3.04.341.44.613.584 1.037.855.314.491.59.635 1.084.89.65.477 1.153.711 1.79 1.17.434.387.733.551 1.039.713.006-.002.003.01.098.231.3.5.575.644 1.08.913 1.007.81 1.855 1.36 2.861 2.2 1.4 1.138 2.642 1.988 3.994 3.04.332.437.6.583 1.057.93 1.032.832 1.922 1.378 2.827 2.118.017.193.136.562.097.939.003 1.13.046 1.884.045 3.036.007 1.463.057 2.528.107 3.593-.045 5.02-.09 10.039-.15 15.857.019 1.25.052 1.7.085 2.151m114.451-322.02c.11-5.021.219-10.042.391-15.527C250.042 1 252.083 1 254.562 1c.761 26.674 1.06 53.348 1.432 80.021.06 4.293.45 8.58.428 13.34-.981.527-1.702.585-2.749.484-2.109-.06-3.893.037-5.993.112-.738-.008-1.16.006-1.642-.43a284 284 0 0 1-.146-9.872c.055-1.484.055-2.567.102-4.064.043-1.806.039-3.197.078-4.957.032-1.113.021-1.856.24-2.912.262-2.45.294-4.589.414-7.137.051-1.804.014-3.198-.023-4.592.135-9.011.27-18.022.638-27.825.224-5.92.214-11.048.204-16.177m8.664 423.944c-.107 4.039-.213 8.078-.52 12.852-.171 1.898-.143 3.061-.114 4.224-.191 7.686-.383 15.371-.52 23.523-.024 5.147-.101 9.828-.364 15.177-.154 1.215-.122 1.761-.09 2.308-.096 4.358-.19 8.715-.32 13.971-.116 5.269-.199 9.64-.281 14.01h-5.572c-.509-4.362-.59-8.723-.651-13.995-.224-6.95-.466-12.99-.707-19.031-.086-10.015-.17-20.03-.246-30.948a819 819 0 0 0-.84-13.027c-.022-3.03-.045-6.06-.062-9.94a97 97 0 0 0-.24-4.072c.078-.734.157-1.468.664-2.548 2.505-.37 4.582-.393 6.66-.417 1.057.455 2.114.91 3.155 2.136.005 2.44.026 4.108.048 5.777"/><path fill="#00629b" d="M165.647 214.153c-11.066 13.313-22.253 26.528-33.146 39.981-5.259 6.496-5.079 13.49-.17 20.139 2.174 2.946 4.477 5.798 6.733 8.683 29.196 37.343 62.865 70.14 100.525 98.877 7.382 5.633 14.248 5.996 21.006.958 41.836-31.185 77.957-68.044 108.95-109.97 4.652-6.294 4.586-11.067-.011-17.313-30.621-41.607-66.727-77.792-107.885-108.963-8.073-6.113-14.011-6.012-22.134.22-26.349 20.216-51.045 42.25-73.868 67.388"/><path fill="#ebd3a9" d="M209.317 393.01c-.075 17.487-.184 34.974-.217 52.461-.04 20.49-.014 40.98-.016 61.47v5.758h-12.587c-1.61-33.065-7.5-65.25-19.151-96.956-.993-2.65-1.493-4.79-2.462-6.689-6.839-13.41-13.774-26.77-20.788-40.518-.777-2.843-1.95-5.3-2.023-7.79-.28-9.564-.209-19.139-.21-29.007.077-.5.097-.7.36-.916.242-.015.72-.107.938.008s.698.214.822.444c.416.411.708.592 1.105.999.327.495.61.662 1.04.945.28.497.543.65 1.004.913.418.433.711.627 1.117 1.11a14.7 14.7 0 0 0 2.701 1.824c.04-.05-.064.025 0 .333.696.81 1.326 1.313 2.105 2.087 1.357 1.39 2.566 2.51 3.93 3.91 1.406 1.441 2.655 2.602 3.904 3.763 1.12 1.215 2.238 2.43 3.796 4.088 2.732 2.875 5.025 5.305 7.318 7.735.448.607.896 1.213 1.69 2.278a495 495 0 0 0 6.277 6.808c.072.314.23.577.77 1.21a231 231 0 0 0 4.22 4.807c.06.313.21.574.74 1.189a65 65 0 0 0 2.358 2.55 519 519 0 0 1 2.633 3.52c1.64 1.898 2.935 3.316 4.23 4.735 0 0 .017-.082.048.266.634.843 1.236 1.338 1.837 1.832 0 0 .182-.02.126.335.757 1.736 1.571 3.117 2.385 4.498M333.92 134.03c.294.8.588 1.6 1.058 3.029 2.071 3.839 3.966 7.05 5.86 10.26 0 0 .022.356.16.78.394.668.65.912.907 1.156 0 0 .04.385.13.876.706 1.303 1.321 2.115 1.937 2.927.216.525.432 1.049.97 2.065 1.578 2.26 2.833 4.03 4.089 5.8.34.828.682 1.657 1.023 3.27.062 10.466.125 20.147.123 30.173-.202 1.242-.34 2.14-.571 3.634-2.447-1.918-4.456-3.493-6.624-5.36-2.11-2.057-4.06-3.822-5.997-5.613.014-.026-.038.002-.158-.292-1.364-1.421-2.607-2.548-3.972-3.946-.717-.769-1.313-1.268-2.035-2.07-2.016-2.126-3.905-3.95-5.922-6.05-1.015-1.084-1.902-1.895-2.9-2.947-.387-.462-.662-.682-1.087-1.192-2.364-2.718-4.577-5.144-6.903-7.806-.394-.427-.675-.618-.95-.77.008.04.043-.032-.02-.342-.67-.858-1.279-1.407-1.96-2.254-1.022-1.341-1.972-2.384-3.003-3.742-1.08-1.41-2.08-2.504-3.162-3.827-.258-.516-.506-.716-.946-1.135-1.39-1.783-2.659-3.26-4.006-4.953-.24-.5-.477-.687-.879-1.114-2.296-4.367-6.915-7.158-6.317-12.99a49 49 0 0 0-.119-3.607c.088-9.954.245-19.907.25-29.86.016-26.727-.033-53.453-.034-80.968a47 47 0 0 1 .147-2.159c4.089.407 8.178.813 12.33 1.849.267 1.134.47 1.639.673 2.144-.012.45-.025.902-.039 2.13.333 3.812.666 6.848 1 9.884.03 1.404.06 2.808.099 5.043.632 4.542 1.255 8.254 1.878 11.967.033.753.066 1.506.134 2.87.035.61.167 1.073.167 1.073 3.466 23.535 9.663 46.331 18.71 68.994.454.835.685 1.093.916 1.351.051.377.102.755.303 1.693.655 1.395 1.16 2.229 1.664 3.063.262.799.525 1.598 1.022 2.92.501.726.769.928 1.037 1.131 0 0-.064-.03-.073.326.357 1.1.723 1.845 1.09 2.59M193.814 44.044c.084-.756.167-1.512.456-2.841.218-1.125.231-1.677.245-2.229.161-1.709.323-3.418.716-5.826.288-2.188.344-3.676.4-5.164.083-.757.168-1.513.294-3.01a54 54 0 0 0-.036-2.949c.057-.756.114-1.513.374-2.91a55 55 0 0 0 .612-4.16c3.08-.013 6.2-.315 9.217.112 1.146.162 2.054 2.002 3.063 3.963-.034 39.59-.06 78.294-.352 117.197-3.133 4.046-6.001 7.893-9.16 11.903-3.413 4.045-6.533 7.926-9.934 11.934-1.027 1.07-1.773 2.012-2.73 3.195-1.147 1.375-2.085 2.51-3.312 3.8a29 29 0 0 0-2.777 3.848c.07.095-.086-.083-.413-.022-2.43 2.387-4.534 4.715-6.928 7.197-4.086 3.983-7.88 7.811-11.996 11.76-3.4 2.532-6.48 4.94-9.57 7.292-.012-.058-.118-.11-.07-.58.056-7.25.45-14.06-.023-20.808-.576-8.215.587-15.652 6.127-22.115 1.345-1.57 1.993-3.739 2.962-5.632 0 0 .142-.336.356-.682.357-.667.5-.988.642-1.309 5.005-10.816 10.544-21.425 14.856-32.51 3.827-9.838 6.292-20.204 9.593-31.01a170 170 0 0 0 1.398-5.497c.081-.433.162-.866.503-1.889.677-2.752 1.094-4.915 1.511-7.077.071-.446.143-.89.445-1.93.347-1.752.462-2.908.578-4.064.067-.444.135-.889.458-1.947.674-3.423 1.092-6.232 1.51-9.041.052-.457.104-.913.394-1.98.355-2.08.473-3.55.591-5.019M307.19 491.955c-.074 1.081-.147 2.163-.454 3.965-.701 6.185-1.167 11.65-1.633 17.114h-12.268c0-37.286 0-74.183.016-111.92a49 49 0 0 0-.185-3.147c.097-2.031.194-4.063.605-6.69 2.157-3.119 4-5.642 5.832-8.188-.012-.021-.05.001.191-.098.42-.39.6-.68 1.047-1.127 1.083-1.34 1.899-2.524 2.937-3.841.401-.425.579-.717.983-1.115.393-.389.56-.67 1.019-1.088 1.134-1.34 1.976-2.544 2.79-3.79-.027-.042.003.052.302-.095 2.744-3.075 5.19-6.003 7.862-9.04.4-.39.571-.671 1.04-1.09 1.509-1.659 2.722-3.18 4.2-4.892 3.68-3.784 7.095-7.377 10.813-11.1 3.792-3.65 7.279-7.167 10.766-10.686 1.145-.965 2.29-1.93 3.952-3.193a16 16 0 0 0 1.973-1.993c.303.208.606.417.99 1.327.07 9.865.237 19.033-.051 28.186-.1 3.182-1.331 6.327-2.046 9.489-.624.805-1.248 1.61-2.2 2.903-2.465 4.366-4.6 8.244-6.736 12.123-.245.249-.491.498-.98 1.044-.478.438-.533.63-.404.872-.169.436-.337.872-.745 1.782-.487.692-.61.967-.605 1.298l-15.564 38.655a157 157 0 0 0-1.602 5.383c-.079.364-.158.728-.468 1.657-1.293 4.482-2.355 8.399-3.417 12.315a79 79 0 0 0-1.09 4.093c-.706 3.456-1.3 6.199-1.892 8.942-.067.44-.133.88-.423 1.877-.33 1.399-.437 2.24-.544 3.081-.066.453-.133.905-.43 1.95-.356 1.747-.481 2.9-.606 4.054a65 65 0 0 1-.575 4.396c-.267.916-.36 1.262-.451 1.61-.379 2.727-.757 5.456-1.27 8.946a248 248 0 0 0-.68 6.03"/></svg>