<svg version="1.1" id="Layer_1" xmlns="http://www.w3.org/2000/svg" xmlns:xlink="http://www.w3.org/1999/xlink" x="0px" y="0px"
	 width="100%" viewBox="0 0 502 528" xml:space="preserve">
<path fill="#EBD3A9" stroke="none" d="M394.910522,292.965424 C396.508850,291.570679 398.107147,290.175903 400.206360,288.529968 C401.168427,287.926727 401.629578,287.574646 402.090729,287.222565 C403.562775,286.238770 405.034821,285.254974 406.979797,283.998505 C407.721863,283.552734 407.875580,283.307343 407.913879,282.989624 C409.543610,281.602112 411.173340,280.214630 413.273010,278.433228 C414.502930,277.050659 415.262939,276.062042 416.022949,275.073486 C444.036743,275.027863 472.050568,274.982239 500.532166,274.968323 C501.000000,280.688049 501.000000,286.376068 501.000000,292.532043 C478.001068,292.629272 455.263885,294.391022 433.170593,301.359619 C410.414825,308.537170 390.950378,321.233368 373.356812,337.062256 C372.493439,337.839020 371.633545,338.622192 370.728851,339.348602 C370.511871,339.522797 370.121582,339.481110 368.973694,339.694000 C368.973694,334.008881 368.973694,328.469025 368.909576,322.464661 C368.921844,319.309265 368.998230,316.618378 369.399658,313.345032 C371.503784,311.191650 373.282928,309.620697 375.062073,308.049774 C375.062073,308.049774 374.991516,308.019379 375.333191,307.989014 C376.513275,307.099060 377.351685,306.239502 378.190125,305.379944 C379.059021,304.855621 379.927917,304.331299 381.291687,303.429077 C384.838440,300.693665 387.890289,298.336090 390.942169,295.978546 C391.276184,295.912170 391.555695,295.751160 392.216064,295.234985 C393.404449,294.304749 394.157471,293.635071 394.910522,292.965424 z"/>
<path fill="#EBD3A9" stroke="none" d="M402.024445,240.121643 C401.585297,239.794525 401.146179,239.467407 400.321411,238.801971 C399.631866,238.293091 399.327972,238.122528 399.024078,237.951981 C399.024078,237.951981 399.001160,238.000809 398.916351,237.765457 C398.618866,237.251709 398.338135,237.096161 397.989349,237.063461 C395.930756,235.399872 393.872162,233.736267 391.335571,231.727844 C389.896851,230.656097 388.936127,229.929169 387.975372,229.202255 C387.975372,229.202255 387.602692,228.985748 387.212708,228.645477 C384.243011,226.500397 381.663330,224.695587 379.083649,222.890793 C379.083649,222.890793 378.991425,222.927032 378.904419,222.645599 C377.862579,221.617737 376.907745,220.871323 375.952881,220.124908 C375.544373,219.761017 375.135834,219.397141 374.278351,218.689117 C372.254486,217.151886 370.679565,215.958786 369.104675,214.765671 C369.058167,212.463745 369.011688,210.161835 368.905182,207.429855 C368.845154,200.892380 368.845154,194.784958 368.845154,187.401443 C374.852661,192.311035 379.845459,196.463181 384.913757,200.521011 C407.911194,218.933487 434.076904,229.886658 463.350220,232.942642 C475.527679,234.213928 487.821930,234.366852 500.531525,235.014160 C501.000000,240.688034 501.000000,246.376083 500.753723,252.576508 C500.350677,253.145950 500.193909,253.203018 500.037170,253.260071 C475.335052,253.196182 450.630524,252.924133 425.932556,253.214096 C419.722870,253.287003 414.602386,252.393402 410.366272,246.846527 C409.634003,246.273956 409.335449,246.085281 409.036896,245.896606 C408.949341,245.565857 408.758240,245.313477 408.137360,244.839371 C407.606781,244.257263 407.331543,244.097443 406.985321,244.059830 C406.985321,244.059830 406.994171,243.999435 406.839142,243.727676 C405.812836,242.916763 404.941559,242.377609 404.070282,241.838470 C403.965302,241.524399 403.767517,241.287979 403.148315,240.847321 C402.625610,240.290283 402.360504,240.142334 402.024445,240.121643 z"/>
<path fill="#EBD3A9" stroke="none" d="M87.025269,219.064423 C88.225769,218.579239 89.426270,218.094055 91.185120,217.306335 C93.853302,215.693466 95.963127,214.383148 98.072945,213.072815 C98.072945,213.072815 98.000832,213.066635 98.370178,213.042572 C100.174400,212.049561 101.609291,211.080582 103.044174,210.111603 C103.941643,209.649887 104.839119,209.188171 106.247681,208.384644 C108.528099,206.713593 110.297417,205.384323 112.066734,204.055038 C112.066734,204.055038 111.991684,204.019867 112.330795,203.996826 C113.165337,203.365891 113.660767,202.757980 114.156189,202.150070 C114.156189,202.150070 114.031448,202.130234 114.400452,202.116455 C115.540871,201.465958 116.312286,200.829224 117.083694,200.192490 C117.602654,199.934616 118.121613,199.676758 119.113373,199.080765 C120.817528,197.541748 122.048897,196.340866 123.280258,195.139984 C123.280258,195.139984 123.654556,195.064056 124.130890,194.855728 C127.146240,192.531921 129.685242,190.416428 132.666077,187.932816 C132.865936,190.147064 132.995071,191.577621 133.124191,193.008179 C133.093796,198.362213 133.063385,203.716263 133.035828,209.923553 C132.982483,212.089401 132.926285,213.402008 132.565521,214.831970 C131.149139,215.954056 130.037277,216.958771 128.708588,218.044647 C128.207306,218.285980 128.018768,218.522583 127.592026,218.922623 C122.750198,222.613678 118.242455,226.217728 113.472336,229.951569 C112.461182,230.681366 111.712395,231.281372 110.710144,231.984375 C110.222733,232.362915 109.988785,232.638474 109.481949,232.961884 C108.809586,233.367065 108.410088,233.724380 107.765907,234.144989 C107.301544,234.455582 107.081856,234.702896 106.558731,235.008484 C105.506561,235.728195 104.757851,236.389664 103.772034,237.124832 C103.229332,237.372787 103.032433,237.630219 102.975372,237.975098 C103.006508,237.979385 102.958420,237.938812 102.639534,237.994141 C101.195854,239.018051 100.071068,239.986618 98.976669,240.970825 C99.007057,240.986450 98.956726,240.938553 98.632851,240.993317 C96.848953,242.309570 95.388924,243.571060 93.620087,244.904999 C92.542244,245.659149 91.773216,246.340836 90.766159,247.102264 C90.340431,247.450150 90.152733,247.718323 89.739601,248.084564 C89.236786,248.387085 89.062836,248.657974 88.762390,249.088409 C88.234474,249.373032 88.060219,249.644104 87.718414,250.148834 C86.289490,251.298431 85.151878,252.293945 83.640831,253.202698 C82.508171,253.171204 81.748947,253.226456 80.593781,253.209229 C79.130188,253.190414 78.062523,253.244095 76.533218,253.218384 C51.388775,253.177246 26.705965,253.215515 1.772999,253.167618 C1.348563,253.054321 1.174281,253.027161 1.000000,253.000000 C1.000000,247.311966 1.000000,241.623917 1.000000,235.467941 C22.380774,235.421280 43.533985,233.778076 64.967972,227.923996 C67.865822,226.911346 70.030411,226.004578 72.195007,225.097794 C72.195007,225.097794 72.606857,225.099869 73.177811,225.020233 C78.174263,222.981888 82.599770,221.023148 87.025269,219.064423 z"/>
<path fill="#EBD3A9" stroke="none" d="M133.093964,339.011108 C132.884506,339.291168 132.675049,339.571228 132.081268,339.670898 C130.829025,338.927429 129.961090,338.364319 129.093170,337.801208 C112.269890,321.827240 93.147789,309.560577 71.087379,302.136627 C48.647522,294.585022 25.445734,292.563629 1.468325,292.980347 C1.000000,287.311951 1.000000,281.623932 1.467815,275.436310 C4.752870,274.930389 7.570118,274.926514 10.387350,274.917358 C33.914951,274.840912 57.442547,274.763489 81.292038,274.774109 C82.049004,274.807831 82.484085,274.753754 83.265221,274.769226 C84.078773,274.891357 84.546257,274.943970 85.166451,275.288208 C87.561798,277.676025 89.804443,279.772186 92.182289,282.113098 C92.803474,282.607971 93.289459,282.858093 93.955688,283.393860 C96.081726,285.139923 98.027534,286.600403 100.119072,288.323792 C101.102722,289.090942 101.940636,289.595154 102.904129,290.411865 C105.356850,292.450012 107.683990,294.175690 110.228394,296.075500 C110.928711,296.517242 111.411766,296.784821 112.062546,297.334229 C113.461624,298.468414 114.692993,299.320801 116.042862,300.375336 C116.384132,300.814240 116.655846,300.959320 117.080421,301.230042 C117.393547,301.721436 117.670425,301.865448 118.164009,302.120911 C118.814850,302.596802 119.316658,302.831116 119.953415,303.289062 C120.387871,303.676910 120.687378,303.841095 120.992912,304.003235 C120.998932,304.001221 120.995667,304.013275 121.090698,304.234070 C121.390686,304.733307 121.665977,304.877930 122.170685,305.146790 C123.177750,305.956390 124.025726,306.507874 125.032059,307.347565 C126.431992,308.485168 127.673561,309.334534 129.026169,310.387451 C129.357529,310.823914 129.625198,310.970337 130.083191,311.316223 C131.115372,312.148743 132.004562,312.695221 132.910400,313.434937 C132.927063,313.628174 133.046219,313.997253 133.006973,314.373535 C133.010239,315.503876 133.052765,316.257935 133.051819,317.410187 C133.058502,318.873169 133.108643,319.937927 133.158798,321.002716 C133.114120,326.022156 133.069443,331.041565 133.009827,336.859985 C133.027908,338.109680 133.060944,338.560394 133.093964,339.011108 z"/>
<path fill="#EBD3A9" stroke="none" d="M247.545120,16.991125 C247.654373,11.969979 247.763626,6.948833 247.936432,1.463843 C250.041672,1.000000 252.083328,1.000000 254.562500,1.000000 C255.323105,27.673910 255.621613,54.348164 255.994247,81.021378 C256.054199,85.313583 256.444702,89.601158 256.421844,94.360367 C255.440536,94.888008 254.719803,94.946152 253.673462,94.845322 C251.563980,94.784096 249.780075,94.881844 247.680008,94.957352 C246.941635,94.948868 246.519424,94.962631 246.038269,94.527649 C245.931503,91.071899 245.883728,88.064903 245.891968,84.655350 C245.947403,83.170593 245.946838,82.088394 245.993805,80.590881 C246.037094,78.784943 246.032837,77.394325 246.071777,75.634102 C246.104004,74.521126 246.093048,73.777748 246.311737,72.722046 C246.573639,70.271378 246.605896,68.133049 246.726227,65.584824 C246.777115,63.780884 246.739960,62.386852 246.702789,60.992817 C246.837646,51.981934 246.972519,42.971054 247.341080,33.168335 C247.564896,27.248041 247.555008,22.119583 247.545120,16.991125 z"/>
<path fill="#EBD3A9" stroke="none" d="M256.208557,440.935242 C256.102112,444.973907 255.995667,449.012573 255.689026,453.786682 C255.517517,455.685089 255.546188,456.848083 255.574860,458.011078 C255.383621,465.696564 255.192368,473.382080 255.054596,481.533813 C255.030869,486.681152 254.953690,491.362274 254.690521,496.711121 C254.536545,497.925598 254.568512,498.472290 254.600479,499.019012 C254.505478,503.376678 254.410461,507.734375 254.281357,512.989990 C254.164841,518.258606 254.082428,522.629333 254.000000,527.000000 C252.285645,527.000000 250.571289,527.000000 248.428467,527.000000 C247.919449,522.638306 247.838913,518.276672 247.776672,513.005432 C247.553192,506.055115 247.311386,500.014343 247.069580,493.973572 C246.984314,483.959259 246.899063,473.944916 246.824326,463.026154 C246.551300,458.080658 246.267746,454.039642 245.984192,449.998596 C245.961670,446.968842 245.939148,443.939087 245.922272,440.059265 C245.845734,438.135040 245.763504,437.060883 245.681290,435.986725 C245.760147,435.253021 245.839020,434.519287 246.345673,433.439423 C248.850784,433.069672 250.928101,433.046082 253.005432,433.022461 C254.062927,433.477325 255.120407,433.932190 256.161011,435.157654 C256.165588,437.597260 256.187073,439.266235 256.208557,440.935242 z"/>
<path fill="#00629B" stroke="none" d="M165.647354,214.152985 C154.581223,227.466003 143.393921,240.680923 132.501266,254.134399 C127.242424,260.629578 127.422440,267.623535 132.330704,274.272949 C134.505249,277.218933 136.807755,280.070801 139.063782,282.956268 C168.260254,320.298737 201.928818,353.095123 239.588989,381.832825 C246.970886,387.465790 253.836655,387.828644 260.594604,382.791199 C302.431213,351.605682 338.552368,314.746948 369.545135,272.820099 C374.196716,266.527405 374.130890,261.754120 369.533661,255.507553 C338.912659,213.900818 302.807281,177.716431 261.648743,146.545288 C253.576096,140.431519 247.637680,140.532776 239.515152,146.764633 C213.165985,166.980560 188.470413,189.014725 165.647354,214.152985 z"/>
<path fill="#EBD3A9" stroke="none" d="M209.316895,393.010010 C209.241562,410.497070 209.133026,427.984070 209.099564,445.471222 C209.060364,465.961029 209.086472,486.450958 209.084290,506.940857 C209.084091,508.738312 209.084274,510.535767 209.084274,512.698975 C204.716385,512.698975 200.823196,512.698975 196.497391,512.698975 C194.887070,479.634186 188.997162,447.449738 177.345520,415.742981 C176.353134,413.092102 175.853195,410.953552 174.884415,409.054108 C168.045227,395.644806 161.109695,382.284607 154.095718,368.536438 C153.318710,365.692596 152.145554,363.235840 152.072586,360.746857 C151.792236,351.182190 151.864426,341.607208 151.862930,331.738586 C151.940170,331.239929 151.959579,331.038818 152.222183,330.823059 C152.465393,330.808472 152.943863,330.716156 153.160965,330.830963 C153.378067,330.945770 153.859100,331.044922 153.983170,331.275208 C154.399048,331.686066 154.690857,331.866638 155.087524,332.274017 C155.414932,332.768890 155.697327,332.935547 156.127701,333.219177 C156.407181,333.716156 156.671387,333.868439 157.132324,334.132385 C157.549728,334.564911 157.843246,334.759369 158.249405,335.242584 C159.211365,336.059723 160.060715,336.588104 160.950165,337.066345 C160.990280,337.016174 160.885666,337.090668 160.950607,337.399078 C161.645676,338.209717 162.275803,338.711945 163.054749,339.485840 C164.412415,340.876312 165.621277,341.995178 166.985870,343.395081 C168.390686,344.837219 169.639755,345.998291 170.888840,347.159393 C172.008102,348.373993 173.127365,349.588593 174.685043,351.247498 C177.416550,354.121948 179.709641,356.552032 182.002747,358.982147 C182.451080,359.588593 182.899414,360.195038 183.692078,361.259552 C186.014099,363.834320 187.991806,365.951019 189.969513,368.067749 C190.042160,368.382172 190.200928,368.644501 190.739471,369.278381 C192.341919,371.163086 193.650650,372.624054 194.959381,374.084991 C195.020004,374.397583 195.170258,374.658508 195.700775,375.273651 C196.680176,376.394104 197.368927,377.108704 198.057678,377.823334 C198.821045,378.836884 199.584396,379.850464 200.691437,381.343933 C202.330673,383.242126 203.626205,384.660339 204.921722,386.078583 C204.921722,386.078583 204.937607,385.997040 204.969421,386.345337 C205.602890,387.188202 206.204529,387.682739 206.806168,388.177277 C206.806168,388.177277 206.988434,388.157501 206.931839,388.511932 C207.689133,390.247589 208.503006,391.628784 209.316895,393.010010 z"/>
<path fill="#EBD3A9" stroke="none" d="M333.919983,134.030685 C334.213837,134.830795 334.507660,135.630920 334.977936,137.058960 C337.049103,140.897751 338.943848,144.108597 340.838593,147.319443 C340.838593,147.319443 340.860260,147.675156 340.997986,148.098724 C341.392151,148.766632 341.648590,149.010971 341.905060,149.255295 C341.905060,149.255295 341.945099,149.639679 342.035645,150.130905 C342.741302,151.434174 343.356476,152.246216 343.971619,153.058258 C344.187775,153.582565 344.403900,154.106873 344.942444,155.122833 C346.520081,157.383789 347.775299,159.153076 349.030518,160.922379 C349.371643,161.751266 349.712769,162.580139 350.053986,164.193542 C350.116425,174.659058 350.178772,184.340073 350.177368,194.365799 C349.974976,195.608185 349.836426,196.505875 349.605774,198.000092 C347.158630,196.081619 345.149536,194.506577 342.982117,192.639862 C340.872864,190.583023 338.922028,188.817841 336.984985,187.026947 C336.998840,187.001221 336.947418,187.028870 336.827026,186.734909 C335.463287,185.313766 334.219910,184.186584 332.855103,182.789383 C332.137909,182.019974 331.542175,181.520569 330.820007,180.719513 C328.804474,178.593109 326.915436,176.768356 324.898071,174.669159 C323.883087,173.584518 322.996399,172.774338 321.998047,171.721619 C321.611084,171.259689 321.335754,171.040268 320.910797,170.529739 C318.547485,167.812225 316.333771,165.385834 314.008118,162.723602 C313.614441,162.296921 313.332733,162.106110 313.058472,161.954880 C313.065948,161.994461 313.101196,161.922012 313.038757,161.612335 C312.367798,160.753815 311.759308,160.204956 311.078949,159.357849 C310.056335,158.017029 309.105591,156.974472 308.075165,155.616364 C306.995178,154.206528 305.994873,153.112228 304.913330,151.789154 C304.654602,151.272781 304.406616,151.072525 303.966736,150.653748 C302.576752,148.871201 301.308075,147.394547 299.960510,145.700897 C299.720551,145.200867 299.483612,145.014236 299.082153,144.587402 C296.786255,140.219864 292.167358,137.429123 292.765076,131.597046 C292.775146,130.130066 292.710632,129.060074 292.646118,127.990082 C292.734009,118.036491 292.890747,108.082932 292.896484,98.129295 C292.911896,71.403381 292.862762,44.677433 292.862183,17.161562 C292.926331,15.915572 292.967590,15.459519 293.008850,15.003468 C297.097900,15.409806 301.186981,15.816144 305.339264,16.851854 C305.605804,17.985994 305.809143,18.490759 306.012451,18.995525 C305.999634,19.446819 305.986786,19.898111 305.973328,21.125965 C306.305969,24.938440 306.639282,27.974356 306.972595,31.010269 C307.002472,32.414379 307.032349,33.818489 307.071838,36.052673 C307.704163,40.595108 308.326904,44.307465 308.949585,48.019825 C308.982544,48.772808 309.015503,49.525791 309.083832,50.889114 C309.119232,51.499462 309.250702,51.963402 309.250702,51.963402 C312.717041,75.497650 318.913666,98.294067 327.961853,120.957260 C328.415314,121.792328 328.646271,122.050163 328.877258,122.307999 C328.928314,122.685425 328.979370,123.062843 329.180298,124.000946 C329.834656,125.395752 330.339142,126.229874 330.843628,127.063995 C331.106323,127.862915 331.368988,128.661835 331.865784,129.983688 C332.367462,130.709534 332.635040,130.912430 332.902618,131.115341 C332.902618,131.115341 332.839081,131.085770 332.829803,131.441391 C333.187012,132.541565 333.553497,133.286133 333.919983,134.030685 z"/>
<path fill="#EBD3A9" stroke="none" d="M193.814453,44.044327 C193.897980,43.288074 193.981491,42.531826 194.269608,41.202728 C194.487717,40.077930 194.501205,39.525986 194.514709,38.974037 C194.676132,37.265156 194.837555,35.556274 195.231064,33.147789 C195.518845,30.960114 195.574524,29.472044 195.630219,27.983976 C195.714462,27.227365 195.798706,26.470753 195.925476,24.973669 C195.941605,23.497204 195.915207,22.761209 195.888794,22.025215 C195.946091,21.268646 196.003403,20.512077 196.262680,19.115040 C196.601486,17.301064 196.738312,16.127556 196.875137,14.954050 C199.954498,14.942130 203.074966,14.639727 206.092209,15.066716 C207.237930,15.228853 208.146118,17.069399 209.154999,19.029919 C209.121414,58.619392 209.095383,97.323898 208.803314,136.227402 C205.669510,140.272980 202.801727,144.119553 199.642120,148.129852 C196.230240,152.175018 193.110214,156.056427 189.709076,160.063782 C188.681763,161.133072 187.935562,162.076447 186.979355,163.258865 C185.831512,164.633682 184.893661,165.769424 183.666718,167.058609 C182.525253,168.411865 181.672882,169.611679 180.890182,170.906891 C180.959869,171.002274 180.803574,170.824371 180.476715,170.884521 C178.046280,173.272263 175.942703,175.599884 173.548737,178.082336 C169.463287,182.065186 165.668213,185.893188 161.553314,189.842651 C158.153549,192.373520 155.073624,194.782944 151.982498,197.134125 C151.971298,197.075867 151.864883,197.023422 151.912445,196.554932 C151.969437,189.304123 152.363007,182.494904 151.889847,175.746429 C151.313873,167.531433 152.477417,160.093872 158.016525,153.630707 C159.362320,152.060394 160.010178,149.891953 160.978958,147.998535 C160.978958,147.998535 161.120529,147.662750 161.334900,147.316620 C161.691925,146.649765 161.834564,146.329041 161.977203,146.008316 C166.982346,135.192047 172.520782,124.583229 176.833099,113.497452 C180.659683,103.660316 183.124741,93.293564 186.426315,82.488266 C187.049362,80.207634 187.436905,78.599327 187.824432,76.991020 C187.905380,76.558014 187.986343,76.125008 188.327179,75.102417 C189.004089,72.350105 189.421112,70.187386 189.838150,68.024666 C189.909409,67.579399 189.980667,67.134132 190.283295,66.094246 C190.630020,64.343369 190.745377,63.187107 190.860748,62.030849 C190.928452,61.586525 190.996155,61.142200 191.319489,60.084290 C191.993134,56.661400 192.411148,53.852089 192.829163,51.042778 C192.881287,50.586262 192.933441,50.129742 193.222687,49.062202 C193.578003,46.982227 193.696243,45.513275 193.814453,44.044327 z"/>
<path fill="#EBD3A9" stroke="none" d="M307.189087,491.954834 C307.116272,493.036224 307.043488,494.117615 306.735962,495.919769 C306.035004,502.104889 305.568787,507.569275 305.102539,513.033630 C301.299896,513.033630 297.497253,513.033630 292.835114,513.033630 C292.835114,475.748474 292.835114,438.850586 292.851196,401.114563 C292.800323,399.506683 292.733398,398.736908 292.666473,397.967133 C292.763458,395.935791 292.860443,393.904480 293.270752,391.277588 C295.427917,388.158325 297.271759,385.634613 299.103394,383.089233 C299.091187,383.067535 299.053101,383.090210 299.294220,382.990509 C299.714813,382.600708 299.894318,382.310608 300.340759,381.864014 C301.423645,380.523773 302.239594,379.339996 303.278381,378.022583 C303.679077,377.597717 303.856873,377.306488 304.260742,376.908142 C304.653778,376.519318 304.820679,376.237640 305.279663,375.820496 C306.413666,374.480377 307.255646,373.275726 308.070129,372.029480 C308.042603,371.987854 308.072632,372.082367 308.371887,371.935181 C311.116302,368.860107 313.561493,365.932190 316.234070,362.895447 C316.633270,362.505127 316.805115,362.223694 317.273071,361.804871 C318.782562,360.146210 319.995911,358.624939 321.474243,356.912781 C325.154022,353.128723 328.568756,349.535553 332.287415,345.812347 C336.078613,342.163940 339.565948,338.645569 343.053284,335.127197 C344.198212,334.161835 345.343140,333.196472 347.005127,331.934296 C348.007446,331.072083 348.492676,330.506653 348.977905,329.941223 C349.280975,330.149475 349.584015,330.357727 349.968079,331.268127 C350.037567,341.132660 350.205444,350.300720 349.916656,359.454407 C349.816315,362.635559 348.585602,365.781067 347.871185,368.942841 C347.247131,369.748291 346.623108,370.553772 345.670074,371.846313 C343.205811,376.211853 341.070587,380.090363 338.935364,383.968872 C338.689667,384.217926 338.443939,384.466949 337.955780,385.013489 C337.476685,385.450775 337.422485,385.642090 337.550751,385.884979 C337.382233,386.321167 337.213684,386.757355 336.806396,387.667297 C336.318756,388.359283 336.196564,388.633789 336.201050,388.964661 C331.099640,401.636200 325.998260,414.307739 320.636993,427.620117 C319.929718,429.841644 319.482269,431.422394 319.034821,433.003143 C318.956055,433.367065 318.877289,433.730957 318.566956,434.660248 C317.273621,439.142181 316.211792,443.058746 315.149963,446.975311 C314.824554,448.101715 314.499176,449.228119 314.060608,451.067627 C313.354187,454.523834 312.760925,457.266968 312.167664,460.010071 C312.101288,460.449951 312.034943,460.889862 311.745422,461.887329 C311.415131,463.286011 311.308014,464.127167 311.200867,464.968292 C311.134521,465.420593 311.068207,465.872925 310.770935,466.918640 C310.414917,468.665375 310.289825,469.818756 310.164734,470.972107 C310.031311,472.247528 309.897858,473.522949 309.589905,475.367554 C309.323120,476.283600 309.230835,476.630432 309.138519,476.977264 C308.760254,479.705475 308.382019,482.433716 307.868408,485.924042 C307.551758,488.442383 307.370422,490.198608 307.189087,491.954834 z"/>
</svg>